<?xml version="1.0" standalone="no"?>
<!DOCTYPE svg PUBLIC "-//W3C//DTD SVG 20010904//EN"
 "http://www.w3.org/TR/2001/REC-SVG-20010904/DTD/svg10.dtd">
<svg version="1.0" xmlns="http://www.w3.org/2000/svg"
 width="2000.000000pt" height="2000.000000pt" viewBox="0 0 2000.000000 2000.000000"
 preserveAspectRatio="xMidYMid meet">

<g transform="translate(0.000000,2000.000000) scale(0.100000,-0.100000)"
fill="#000000" stroke="none">
<path d="M9623 15193 c-496 -999 -2406 -4845 -4023 -8098 -1307 -2629 -1450
-2919 -1432 -2900 13 14 5796 8674 5811 8703 7 12 16 20 22 16 5 -3 1319
-1970 2920 -4370 1600 -2400 2911 -4364 2914 -4364 2 0 -227 465 -509 1033
-3209 6463 -5320 10713 -5326 10720 -4 4 -173 -329 -377 -740z"/>
<path d="M7190 7254 c-2646 -2711 -3059 -3136 -3035 -3122 6 3 1321 826 2924
1827 l2914 1821 46 -26 c35 -21 5651 -3530 5780 -3612 23 -15 22 -12 -9 25
-90 106 -5806 5950 -5811 5941 -4 -6 -8 -6 -10 -1 -2 6 -1262 -1279 -2799
-2853z"/>
<path d="M7037 4897 l-2897 -792 2931 -3 c1612 -1 4247 -1 5856 0 l2925 3
-2923 790 c-1608 434 -2940 790 -2959 791 -21 2 -1190 -313 -2933 -789z"/>
</g>
</svg>
